PathFileType	4	(X/Y/Z)	F:\biomechanics\vid_Sports2D\vid_Sports2D_px_person00.trc
DataRate	CameraRate	NumFrames	NumMarkers	Units	OrigDataRate	OrigDataStartFrame	OrigNumFrames
250.0	250.0	4	22	m	250.0	202	808
Frame#	Time	Hip			RHip			RKnee			RAnkle			RBigToe			RSmallToe			RHeel			LHip			LKnee			LAnkle			LBigToe			LSmallToe			LHeel			Neck			Head			Nose			RShoulder			RElbow			RWrist			LShoulder			LElbow			LWrist			
		X1	Y1	Z1	X2	Y2	Z2	X3	Y3	Z3	X4	Y4	Z4	X5	Y5	Z5	X6	Y6	Z6	X7	Y7	Z7	X8	Y8	Z8	X9	Y9	Z9	X10	Y10	Z10	X11	Y11	Z11	X12	Y12	Z12	X13	Y13	Z13	X14	Y14	Z14	X15	Y15	Z15	X16	Y16	Z16	X17	Y17	Z17	X18	Y18	Z18	X19	Y19	Z19	X20	Y20	Z20	X21	Y21	Z21	X22	Y22	Z22
202	0.8090012391573731	159.3609779419326	294.33991880149773	0.0	151.96260681461777	293.3207221766179	0.0	201.497981389886	353.4714964995956	0.0	214.47541010332196	429.9034235012589	0.0	245.15208665218097	443.7760340383323	0.0	236.56106445946486	447.4638874184086	0.0	210.37395979146288	439.0391528595464	0.0	169.410686387917	293.0021118745503	0.0	191.98868543046638	355.66510749666145	0.0	171.093844595343	420.13604612927463	0.0	190.92430496398478	441.156101556825	0.0	188.4756428438148	436.7256539258643	0.0	162.47621265062236	428.2800203546564	0.0	178.84873719024506	199.98193214951044	0.0	186.13964558579482	150.70011664963712	0.0	199.39990530666742	175.32616836195933	0.0	162.14693418839684	214.29004800186917	0.0	136.68742604313016	252.86897771992494	0.0	184.0885826534757	266.68271517060117	0.0	194.2739803894283	211.22896029032742	0.0	207.77832234498695	246.42569921415608	0.0	207.3758454407238	264.00976315716576	0.0
203	0.8130061957868651	159.86393307083748	294.4091757183384	0.0	152.5080983986356	293.42260719893386	0.0	202.04201317005845	353.52050540003216	0.0	215.6162696685565	429.9732281490473	0.0	246.37059253434632	443.79069818248007	0.0	237.72923470985725	447.53487589364306	0.0	211.54243760085424	439.1392596339057	0.0	170.01732350024008	293.0511662859379	0.0	192.91229887621282	355.54050813858385	0.0	172.69721680834962	420.39745527872105	0.0	192.9785032950182	440.99068025368996	0.0	190.37618837148287	436.669109022809	0.0	164.21796642694116	428.7166991958775	0.0	179.50611526846026	200.1296542005074	0.0	186.69232830407952	150.72876707590973	0.0	199.99169369481626	175.39937387629368	0.0	162.97265298708274	214.38302380423235	0.0	137.70326647097954	253.17414175495693	0.0	185.0695902097765	267.088031569742	0.0	194.87153639804032	211.3352428346771	0.0	208.25723431991398	246.50530374694026	0.0	208.12324189882062	264.2911672424137	0.0
204	0.817011152416357	160.37438484965017	294.4805454516114	0.0	153.05103599690779	293.529312364392	0.0	202.59113343988238	353.57126655964447	0.0	216.74945374568517	430.047599445956	0.0	247.58034780305798	443.8054309146166	0.0	238.88625537942463	447.6069435783376	0.0	212.69332155590016	439.24553626090216	0.0	170.63755540810965	293.0990714876152	0.0	193.84258508738495	355.42590862405245	0.0	174.30714012017904	420.67237535033934	0.0	195.05534890479444	440.8362886450189	0.0	192.30221775916723	436.62416899484833	0.0	165.9655799683233	429.1600321149399	0.0	180.16384340484595	200.28279239238486	0.0	187.24459969113872	150.77246790997563	0.0	200.57918593024746	175.48066450830189	0.0	163.800348304878	214.47963328083432	0.0	138.72639394336608	253.49162809354587	0.0	186.0434256984531	267.49936529796105	0.0	195.46572108957457	211.45724465519638	0.0	208.74200818228505	246.59058750054677	0.0	208.8883089029226	264.584815111522	0.0
205	0.821016109045849	160.89242100141368	294.5551551286057	0.0	153.59176311581325	293.6416372335955	0.0	203.1459189865992	353.62430930124435	0.0	217.87447865930014	430.12743296573694	0.0	248.78147448146217	443.820415020102	0.0	240.03273719514044	447.6804568804112	0.0	213.82660325034794	439.3590697709441	0.0	171.27013840923274	293.146891820598	0.0	194.78131923129817	355.32172510558195	0.0	175.92258953487817	420.9603580440014	0.0	197.1511652549324	440.69424396688345	0.0	194.25145678918375	436.591362239009	0.0	167.71744252544588	429.60939495658175	0.0	180.8216989716889	200.44121853457688	0.0	187.79685544506856	150.8321425456464	0.0	201.16240245506833	175.56975057632766	0.0	164.62940912134243	214.58074264865394	0.0	139.75641196279676	253.82160298300153	0.0	187.01034599801795	267.91559957181823	0.0	196.05628785102047	211.59478705722918	0.0	209.23246005499817	246.68249138631003	0.0	209.6703939931228	264.89239830827694	0.0
